<svg xmlns="http://www.w3.org/2000/svg" viewBox="0 0 1200 800" fill="none">
  <rect width="1200" height="800" rx="12" fill="#0a0a0f"/>
  <!-- Browser Chrome -->
  <rect x="0" y="0" width="1200" height="44" rx="12" fill="#12121a"/>
  <rect x="0" y="28" width="1200" height="16" fill="#12121a"/>
  <circle cx="20" cy="22" r="6" fill="#ff5f57"/>
  <circle cx="40" cy="22" r="6" fill="#ffbd2e"/>
  <circle cx="60" cy="22" r="6" fill="#28c840"/>
  <rect x="100" y="14" width="320" height="18" rx="9" fill="#1a1a26"/>
  <!-- Hero -->
  <rect x="0" y="44" width="1200" height="380" fill="url(#el-hero)"/>
  <defs>
    <linearGradient id="el-hero" x1="0" y1="0" x2="0" y2="1">
      <stop offset="0%" stop-color="#0a0a1a"/>
      <stop offset="50%" stop-color="#0d0d2b"/>
      <stop offset="100%" stop-color="#0a0a1a"/>
    </linearGradient>
    <linearGradient id="el-accent" x1="0" y1="0" x2="1" y2="0">
      <stop offset="0%" stop-color="#4f46e5"/>
      <stop offset="100%" stop-color="#6366f1"/>
    </linearGradient>
    <linearGradient id="el-glow" x1="0" y1="0" x2="1" y2="1">
      <stop offset="0%" stop-color="rgba(79,70,229,0.12)"/>
      <stop offset="100%" stop-color="rgba(79,70,229,0)"/>
    </linearGradient>
  </defs>
  <!-- Nav -->
  <rect x="40" y="64" width="1120" height="36" rx="6" fill="rgba(255,255,255,0.03)"/>
  <text x="75" y="88" font-family="Arial, sans-serif" font-size="13" font-weight="bold" fill="white" letter-spacing="3">ELITE DENTAL</text>
  <rect x="200" y="74" width="55" height="16" rx="3" fill="rgba(255,255,255,0.1)"/>
  <rect x="272" y="74" width="65" height="16" rx="3" fill="rgba(255,255,255,0.1)"/>
  <rect x="352" y="74" width="75" height="16" rx="3" fill="rgba(255,255,255,0.1)"/>
  <rect x="442" y="74" width="85" height="16" rx="3" fill="rgba(255,255,255,0.1)"/>
  <rect x="1020" y="68" width="120" height="28" rx="14" fill="#4f46e5"/>
  <text x="1050" y="87" font-family="Arial, sans-serif" font-size="10" font-weight="bold" fill="white">Get Started</text>
  <!-- Hero Content -->
  <text x="80" y="155" font-family="Arial, sans-serif" font-size="28" font-weight="bold" fill="white" letter-spacing="1">Elite Dentistry in the Heart of Rabat</text>
  <text x="80" y="185" font-family="Arial, sans-serif" font-size="13" fill="rgba(255,255,255,0.45)">
    World-class dental care with cutting-edge technology and personalized treatment plans.
  </text>
  <rect x="80" y="210" width="170" height="42" rx="21" fill="#4f46e5"/>
  <text x="125" y="237" font-family="Arial, sans-serif" font-size="12" font-weight="bold" fill="white">Book an Appointment</text>
  <rect x="265" y="210" width="150" height="42" rx="21" fill="rgba(255,255,255,0.04)" stroke="rgba(79,70,229,0.3)" stroke-width="1"/>
  <text x="300" y="237" font-family="Arial, sans-serif" font-size="12" fill="rgba(255,255,255,0.6)">Explore Services</text>
  <!-- Hero features -->
  <rect x="80" y="278" width="320" height="56" rx="10" fill="rgba(79,70,229,0.04)" stroke="rgba(79,70,229,0.08)" stroke-width="1"/>
  <rect x="100" y="294" width="20" height="20" rx="6" fill="#4f46e5"/>
  <text x="103" y="309" font-family="Arial, sans-serif" font-size="8" fill="white">✓</text>
  <text x="132" y="297" font-family="Arial, sans-serif" font-size="12" font-weight="bold" fill="white">Award-Winning Team</text>
  <text x="132" y="318" font-family="Arial, sans-serif" font-size="10" fill="rgba(255,255,255,0.35)">Recognized excellence in dental care</text>
  <rect x="420" y="278" width="320" height="56" rx="10" fill="rgba(79,70,229,0.04)" stroke="rgba(79,70,229,0.08)" stroke-width="1"/>
  <rect x="440" y="294" width="20" height="20" rx="6" fill="#4f46e5"/>
  <text x="443" y="309" font-family="Arial, sans-serif" font-size="8" fill="white">✓</text>
  <text x="472" y="297" font-family="Arial, sans-serif" font-size="12" font-weight="bold" fill="white">Advanced Technology</text>
  <text x="472" y="318" font-family="Arial, sans-serif" font-size="10" fill="rgba(255,255,255,0.35)">CAD/CAM, 3D imaging, laser dentistry</text>
  <!-- Right graphic -->
  <circle cx="950" cy="220" r="130" fill="url(#el-glow)"/>
  <rect x="860" y="160" width="180" height="120" rx="16" fill="rgba(79,70,229,0.03)" stroke="rgba(79,70,229,0.06)" stroke-width="1"/>
  <text x="900" y="200" font-family="Arial, sans-serif" font-size="24" font-weight="bold" fill="#4f46e5">4.9★</text>
  <text x="890" y="222" font-family="Arial, sans-serif" font-size="9" fill="rgba(255,255,255,0.3)">Google Reviews</text>
  <rect x="880" y="238" width="80" height="16" rx="8" fill="rgba(79,70,229,0.08)"/>
  <text x="898" y="250" font-family="Arial, sans-serif" font-size="8" fill="#6366f1">200+ reviews</text>
  <!-- Services Section -->
  <rect x="0" y="424" width="1200" height="190" fill="#0a0a0f"/>
  <text x="600" y="460" font-family="Arial, sans-serif" font-size="16" font-weight="bold" fill="white" text-anchor="middle">Specialized Treatments</text>
  <rect x="40" y="480" width="250" height="110" rx="10" fill="#0f0f1a" stroke="rgba(79,70,229,0.06)" stroke-width="1"/>
  <rect x="60" y="498" width="28" height="28" rx="8" fill="rgba(79,70,229,0.08)"/>
  <text x="67" y="517" font-family="Arial, sans-serif" font-size="12" fill="#6366f1">◈</text>
  <text x="100" y="516" font-family="Arial, sans-serif" font-size="12" font-weight="bold" fill="white">Laser Dentistry</text>
  <text x="60" y="540" font-family="Arial, sans-serif" font-size="10" fill="rgba(255,255,255,0.35)">Minimally invasive laser</text>
  <text x="60" y="555" font-family="Arial, sans-serif" font-size="10" fill="rgba(255,255,255,0.35)">treatments for precision care.</text>
  <text x="60" y="578" font-family="Arial, sans-serif" font-size="11" font-weight="bold" fill="#6366f1">From 1,200 MAD</text>
  <rect x="315" y="480" width="250" height="110" rx="10" fill="#0f0f1a" stroke="rgba(79,70,229,0.06)" stroke-width="1"/>
  <rect x="335" y="498" width="28" height="28" rx="8" fill="rgba(79,70,229,0.08)"/>
  <text x="342" y="517" font-family="Arial, sans-serif" font-size="12" fill="#6366f1">◈</text>
  <text x="375" y="516" font-family="Arial, sans-serif" font-size="12" font-weight="bold" fill="white">Full Mouth Rehab</text>
  <text x="335" y="540" font-family="Arial, sans-serif" font-size="10" fill="rgba(255,255,255,0.35)">Comprehensive rehabilitation</text>
  <text x="335" y="555" font-family="Arial, sans-serif" font-size="10" fill="rgba(255,255,255,0.35)">for complete oral health.</text>
  <text x="335" y="578" font-family="Arial, sans-serif" font-size="11" font-weight="bold" fill="#6366f1">From 12,000 MAD</text>
  <rect x="590" y="480" width="250" height="110" rx="10" fill="#0f0f1a" stroke="rgba(79,70,229,0.06)" stroke-width="1"/>
  <rect x="610" y="498" width="28" height="28" rx="8" fill="rgba(79,70,229,0.08)"/>
  <text x="617" y="517" font-family="Arial, sans-serif" font-size="12" fill="#6366f1">◈</text>
  <text x="650" y="516" font-family="Arial, sans-serif" font-size="12" font-weight="bold" fill="white">Implants & Crowns</text>
  <text x="610" y="540" font-family="Arial, sans-serif" font-size="10" fill="rgba(255,255,255,0.35)">Permanent implant-supported</text>
  <text x="610" y="555" font-family="Arial, sans-serif" font-size="10" fill="rgba(255,255,255,0.35)">crowns and bridges.</text>
  <text x="610" y="578" font-family="Arial, sans-serif" font-size="11" font-weight="bold" fill="#6366f1">From 5,000 MAD</text>
  <rect x="865" y="480" width="250" height="110" rx="10" fill="#0f0f1a" stroke="rgba(79,70,229,0.06)" stroke-width="1"/>
  <rect x="885" y="498" width="28" height="28" rx="8" fill="rgba(79,70,229,0.08)"/>
  <text x="892" y="517" font-family="Arial, sans-serif" font-size="12" fill="#6366f1">◈</text>
  <text x="925" y="516" font-family="Arial, sans-serif" font-size="12" font-weight="bold" fill="white">Periodontics</text>
  <text x="885" y="540" font-family="Arial, sans-serif" font-size="10" fill="rgba(255,255,255,0.35)">Gum disease treatment</text>
  <text x="885" y="555" font-family="Arial, sans-serif" font-size="10" fill="rgba(255,255,255,0.35)">and prevention.</text>
  <text x="885" y="578" font-family="Arial, sans-serif" font-size="11" font-weight="bold" fill="#6366f1">From 800 MAD</text>
  <!-- Footer -->
  <rect x="0" y="614" width="1200" height="60" fill="#07070d"/>
  <text x="600" y="640" font-family="Arial, sans-serif" font-size="10" fill="rgba(255,255,255,0.18)" text-anchor="middle">Elite Dental Clinic — Rabat, Morocco | info@elitedental.ma | +212 5XX-XXXXXX</text>
  <!-- Preview label -->
  <rect x="40" y="696" width="1120" height="80" rx="10" fill="#07070d" stroke="rgba(79,70,229,0.06)" stroke-width="1"/>
  <text x="80" y="726" font-family="monospace" font-size="11" fill="rgba(255,255,255,0.22)">Preview: Elite Dental Clinic — High-End Dental Website</text>
  <rect x="80" y="742" width="100" height="20" rx="4" fill="rgba(79,70,229,0.1)"/>
  <text x="94" y="756" font-family="Arial, sans-serif" font-size="8" fill="#6366f1">CONVERSION</text>
  <rect x="192" y="742" width="90" height="20" rx="4" fill="rgba(255,255,255,0.04)"/>
  <text x="205" y="756" font-family="Arial, sans-serif" font-size="8" fill="rgba(255,255,255,0.3)">LOCAL SEO</text>
  <rect x="294" y="742" width="100" height="20" rx="4" fill="rgba(255,255,255,0.04)"/>
  <text x="305" y="756" font-family="Arial, sans-serif" font-size="8" fill="rgba(255,255,255,0.3)">HIGH-END</text>
</svg>
