<svg xmlns="http://www.w3.org/2000/svg" viewBox="0 0 1200 800" fill="none">
  <rect width="1200" height="800" rx="12" fill="#0a0a0f"/>
  <rect x="0" y="0" width="1200" height="44" rx="12" fill="#12121a"/>
  <rect x="0" y="28" width="1200" height="16" fill="#12121a"/>
  <circle cx="20" cy="22" r="6" fill="#ff5f57"/>
  <circle cx="40" cy="22" r="6" fill="#ffbd2e"/>
  <circle cx="60" cy="22" r="6" fill="#28c840"/>
  <rect x="100" y="14" width="320" height="18" rx="9" fill="#1a1a26"/>
  <defs>
    <linearGradient id="re-hero" x1="0" y1="0" x2="0" y2="1">
      <stop offset="0%" stop-color="#0a0a1a"/>
      <stop offset="50%" stop-color="#0d1a2b"/>
      <stop offset="100%" stop-color="#0a0a1a"/>
    </linearGradient>
    <linearGradient id="re-accent" x1="0" y1="0" x2="1" y2="0">
      <stop offset="0%" stop-color="#06b6d4"/>
      <stop offset="100%" stop-color="#22d3ee"/>
    </linearGradient>
    <linearGradient id="re-glow" x1="0" y1="0" x2="1" y2="1">
      <stop offset="0%" stop-color="rgba(6,182,212,0.12)"/>
      <stop offset="100%" stop-color="rgba(6,182,212,0)"/>
    </linearGradient>
  </defs>
  <rect x="40" y="64" width="1120" height="36" rx="6" fill="rgba(255,255,255,0.03)"/>
  <text x="75" y="88" font-family="Arial, sans-serif" font-size="14" font-weight="bold" fill="#06b6d4" letter-spacing="3">LUXE ESTATES</text>
  <rect x="1020" y="68" width="120" height="28" rx="14" fill="#06b6d4"/>
  <text x="1050" y="87" font-family="Arial, sans-serif" font-size="10" font-weight="bold" fill="#0a0a1a">Search Properties</text>
  <rect x="0" y="44" width="1200" height="380" fill="url(#re-hero)"/>
  <text x="80" y="160" font-family="Arial, sans-serif" font-size="32" font-weight="bold" fill="white" letter-spacing="1">Find Your Dream Home</text>
  <text x="80" y="190" font-family="Arial, sans-serif" font-size="13" fill="rgba(255,255,255,0.45)">
    Premium properties in Morocco's most sought-after locations.
  </text>
  <rect x="80" y="215" width="1120" height="56" rx="12" fill="rgba(255,255,255,0.04)" stroke="rgba(255,255,255,0.06)" stroke-width="1"/>
  <rect x="100" y="229" width="200" height="28" rx="14" fill="rgba(255,255,255,0.06)"/>
  <text x="120" y="248" font-family="Arial, sans-serif" font-size="10" fill="rgba(255,255,255,0.5)">Location</text>
  <rect x="320" y="229" width="160" height="28" rx="14" fill="rgba(255,255,255,0.06)"/>
  <text x="340" y="248" font-family="Arial, sans-serif" font-size="10" fill="rgba(255,255,255,0.5)">Property Type</text>
  <rect x="500" y="229" width="120" height="28" rx="14" fill="rgba(255,255,255,0.06)"/>
  <text x="520" y="248" font-family="Arial, sans-serif" font-size="10" fill="rgba(255,255,255,0.5)">Budget</text>
  <rect x="640" y="229" width="120" height="28" rx="14" fill="#06b6d4"/>
  <text x="670" y="248" font-family="Arial, sans-serif" font-size="10" font-weight="bold" fill="white">Search</text>
  <rect x="80" y="296" width="230" height="80" rx="12" fill="rgba(6,182,212,0.04)" stroke="rgba(6,182,212,0.08)" stroke-width="1"/>
  <text x="100" y="320" font-family="Arial, sans-serif" font-size="13" font-weight="bold" fill="#22d3ee">1,200+</text>
  <text x="100" y="340" font-family="Arial, sans-serif" font-size="9" fill="rgba(255,255,255,0.3)">Properties Listed</text>
  <text x="100" y="358" font-family="Arial, sans-serif" font-size="9" fill="rgba(255,255,255,0.2)">Nationwide</text>
  <rect x="330" y="296" width="230" height="80" rx="12" fill="rgba(6,182,212,0.04)" stroke="rgba(6,182,212,0.08)" stroke-width="1"/>
  <text x="350" y="320" font-family="Arial, sans-serif" font-size="13" font-weight="bold" fill="#22d3ee">98%</text>
  <text x="350" y="340" font-family="Arial, sans-serif" font-size="9" fill="rgba(255,255,255,0.3)">Client Satisfaction</text>
  <text x="350" y="358" font-family="Arial, sans-serif" font-size="9" fill="rgba(255,255,255,0.2)">Verified Reviews</text>
  <rect x="0" y="424" width="1200" height="190" fill="#0a0a0f"/>
  <text x="600" y="460" font-family="Arial, sans-serif" font-size="16" font-weight="bold" fill="#22d3ee" text-anchor="middle">Featured Properties</text>
  <rect x="40" y="480" width="250" height="110" rx="10" fill="#12121a" stroke="rgba(6,182,212,0.06)" stroke-width="1"/>
  <rect x="60" y="498" width="210" height="70" rx="8" fill="rgba(6,182,212,0.03)"/>
  <text x="110" y="530" font-family="Arial, sans-serif" font-size="12" font-weight="bold" fill="white">Villa Anfa</text>
  <text x="110" y="548" font-family="Arial, sans-serif" font-size="9" fill="rgba(255,255,255,0.35)">Casablanca — 4BR, Pool</text>
  <text x="110" y="565" font-family="Arial, sans-serif" font-size="12" font-weight="bold" fill="#22d3ee">3,500,000 MAD</text>
  <rect x="315" y="480" width="250" height="110" rx="10" fill="#12121a" stroke="rgba(6,182,212,0.06)" stroke-width="1"/>
  <rect x="335" y="498" width="210" height="70" rx="8" fill="rgba(6,182,212,0.03)"/>
  <text x="385" y="530" font-family="Arial, sans-serif" font-size="12" font-weight="bold" fill="white">Appartement Palmeraie</text>
  <text x="385" y="548" font-family="Arial, sans-serif" font-size="9" fill="rgba(255,255,255,0.35)">Marrakech — 3BR, Garden</text>
  <text x="385" y="565" font-family="Arial, sans-serif" font-size="12" font-weight="bold" fill="#22d3ee">1,800,000 MAD</text>
  <rect x="590" y="480" width="250" height="110" rx="10" fill="#12121a" stroke="rgba(6,182,212,0.06)" stroke-width="1"/>
  <rect x="610" y="498" width="210" height="70" rx="8" fill="rgba(6,182,212,0.03)"/>
  <text x="660" y="530" font-family="Arial, sans-serif" font-size="12" font-weight="bold" fill="white">Riad Lahbab</text>
  <text x="660" y="548" font-family="Arial, sans-serif" font-size="9" fill="rgba(255,255,255,0.35)">Fes — 5BR, Traditional</text>
  <text x="660" y="565" font-family="Arial, sans-serif" font-size="12" font-weight="bold" fill="#22d3ee">4,200,000 MAD</text>
  <rect x="865" y="480" width="250" height="110" rx="10" fill="#12121a" stroke="rgba(6,182,212,0.06)" stroke-width="1"/>
  <rect x="885" y="498" width="210" height="70" rx="8" fill="rgba(6,182,212,0.03)"/>
  <text x="935" y="530" font-family="Arial, sans-serif" font-size="12" font-weight="bold" fill="white">Corniche Studio</text>
  <text x="935" y="548" font-family="Arial, sans-serif" font-size="9" fill="rgba(255,255,255,0.35)">Tangier — 2BR, Sea View</text>
  <text x="935" y="565" font-family="Arial, sans-serif" font-size="12" font-weight="bold" fill="#22d3ee">1,200,000 MAD</text>
  <rect x="0" y="614" width="1200" height="60" fill="#06060f"/>
  <text x="600" y="640" font-family="Arial, sans-serif" font-size="10" fill="rgba(255,255,255,0.18)" text-anchor="middle">Luxe Estates — Rabat, Morocco | info@luxeestates.ma | +212 5XX-XXXXXX</text>
  <rect x="40" y="696" width="1120" height="80" rx="10" fill="#06060f" stroke="rgba(6,182,212,0.06)" stroke-width="1"/>
  <text x="80" y="726" font-family="monospace" font-size="11" fill="rgba(255,255,255,0.22)">Preview: Luxe Estates — Real Estate Website</text>
  <rect x="80" y="742" width="90" height="20" rx="4" fill="rgba(6,182,212,0.1)"/>
  <text x="90" y="756" font-family="Arial, sans-serif" font-size="8" fill="#06b6d4">PREMIUM</text>
  <rect x="182" y="742" width="100" height="20" rx="4" fill="rgba(255,255,255,0.04)"/>
  <text x="193" y="756" font-family="Arial, sans-serif" font-size="8" fill="rgba(255,255,255,0.3)">MODERN</text>
</svg>
