<svg xmlns="http://www.w3.org/2000/svg" viewBox="0 0 1200 800" fill="none">
  <rect width="1200" height="800" rx="12" fill="#0f0a08"/>
  <rect x="0" y="0" width="1200" height="44" rx="12" fill="#1a100c"/>
  <rect x="0" y="28" width="1200" height="16" fill="#1a100c"/>
  <circle cx="20" cy="22" r="6" fill="#ff5f57"/>
  <circle cx="40" cy="22" r="6" fill="#ffbd2e"/>
  <circle cx="60" cy="22" r="6" fill="#28c840"/>
  <rect x="100" y="14" width="320" height="18" rx="9" fill="#2a1810"/>
  <defs>
    <linearGradient id="res-hero" x1="0" y1="0" x2="0" y2="1">
      <stop offset="0%" stop-color="#1a0c08"/>
      <stop offset="50%" stop-color="#2d1a12"/>
      <stop offset="100%" stop-color="#1a0c08"/>
    </linearGradient>
    <linearGradient id="res-accent" x1="0" y1="0" x2="1" y2="0">
      <stop offset="0%" stop-color="#f97316"/>
      <stop offset="100%" stop-color="#fb923c"/>
    </linearGradient>
    <linearGradient id="res-glow" x1="0" y1="0" x2="1" y2="1">
      <stop offset="0%" stop-color="rgba(249,115,22,0.12)"/>
      <stop offset="100%" stop-color="rgba(249,115,22,0)"/>
    </linearGradient>
  </defs>
  <rect x="40" y="64" width="1120" height="36" rx="6" fill="rgba(255,255,255,0.03)"/>
  <text x="75" y="88" font-family="Georgia, serif" font-size="16" font-weight="bold" fill="#f97316" letter-spacing="2">LE BAZAR</text>
  <rect x="1020" y="68" width="120" height="28" rx="14" fill="#f97316"/>
  <text x="1055" y="87" font-family="Arial, sans-serif" font-size="10" font-weight="bold" fill="#1a0c08">Reserve Now</text>
  <rect x="0" y="44" width="1200" height="380" fill="url(#res-hero)"/>
  <text x="80" y="160" font-family="Georgia, serif" font-size="34" font-weight="bold" fill="white" letter-spacing="1">An Exquisite Culinary Journey</text>
  <text x="80" y="195" font-family="Arial, sans-serif" font-size="13" fill="rgba(255,255,255,0.45)">
    Modern Moroccan cuisine with a contemporary twist. Fine dining in the heart of Marrakech.
  </text>
  <rect x="80" y="220" width="180" height="42" rx="21" fill="#f97316"/>
  <text x="125" y="247" font-family="Arial, sans-serif" font-size="12" font-weight="bold" fill="white">View Our Menu</text>
  <rect x="275" y="220" width="160" height="42" rx="21" fill="rgba(255,255,255,0.04)" stroke="rgba(249,115,22,0.3)" stroke-width="1"/>
  <text x="315" y="247" font-family="Arial, sans-serif" font-size="12" fill="rgba(255,255,255,0.6)">Book a Table</text>
  <rect x="80" y="286" width="320" height="56" rx="10" fill="rgba(249,115,22,0.04)" stroke="rgba(249,115,22,0.08)" stroke-width="1"/>
  <text x="110" y="306" font-family="Arial, sans-serif" font-size="12" font-weight="bold" fill="white">✦ Michelin Starred</text>
  <text x="110" y="324" font-family="Arial, sans-serif" font-size="10" fill="rgba(255,255,255,0.35)">Awarded for culinary excellence</text>
  <rect x="420" y="286" width="320" height="56" rx="10" fill="rgba(249,115,22,0.04)" stroke="rgba(249,115,22,0.08)" stroke-width="1"/>
  <text x="450" y="306" font-family="Arial, sans-serif" font-size="12" font-weight="bold" fill="white">✦ Farm-to-Table</text>
  <text x="450" y="324" font-family="Arial, sans-serif" font-size="10" fill="rgba(255,255,255,0.35)">Locally sourced ingredients</text>
  <ellipse cx="950" cy="220" rx="150" ry="150" fill="url(#res-glow)"/>
  <rect x="860" y="170" width="180" height="100" rx="16" fill="rgba(249,115,22,0.03)" stroke="rgba(249,115,22,0.06)" stroke-width="1"/>
  <text x="900" y="208" font-family="Georgia, serif" font-size="28" font-weight="bold" fill="#fb923c">4.8★</text>
  <text x="885" y="228" font-family="Arial, sans-serif" font-size="9" fill="rgba(255,255,255,0.3)">TripAdvisor Rating</text>
  <rect x="880" y="245" width="90" height="16" rx="8" fill="rgba(249,115,22,0.08)"/>
  <text x="900" y="257" font-family="Arial, sans-serif" font-size="8" fill="#f97316">1,200+ reviews</text>
  <rect x="0" y="424" width="1200" height="190" fill="#0f0a08"/>
  <text x="600" y="460" font-family="Georgia, serif" font-size="16" font-weight="bold" fill="#fb923c" text-anchor="middle">Signature Dishes</text>
  <rect x="40" y="480" width="250" height="110" rx="10" fill="#1a100c" stroke="rgba(249,115,22,0.06)" stroke-width="1"/>
  <rect x="60" y="498" width="210" height="70" rx="8" fill="rgba(249,115,22,0.02)"/>
  <text x="100" y="528" font-family="Georgia, serif" font-size="13" font-weight="bold" fill="white">Tagine Royale</text>
  <text x="100" y="548" font-family="Arial, sans-serif" font-size="9" fill="rgba(255,255,255,0.35)">Lamb, apricots, almonds</text>
  <text x="100" y="565" font-family="Arial, sans-serif" font-size="12" font-weight="bold" fill="#f97316">280 MAD</text>
  <rect x="315" y="480" width="250" height="110" rx="10" fill="#1a100c" stroke="rgba(249,115,22,0.06)" stroke-width="1"/>
  <rect x="335" y="498" width="210" height="70" rx="8" fill="rgba(249,115,22,0.02)"/>
  <text x="375" y="528" font-family="Georgia, serif" font-size="13" font-weight="bold" fill="white">Couscous Royal</text>
  <text x="375" y="548" font-family="Arial, sans-serif" font-size="9" fill="rgba(255,255,255,0.35)">Seven vegetables, lamb</text>
  <text x="375" y="565" font-family="Arial, sans-serif" font-size="12" font-weight="bold" fill="#f97316">220 MAD</text>
  <rect x="590" y="480" width="250" height="110" rx="10" fill="#1a100c" stroke="rgba(249,115,22,0.06)" stroke-width="1"/>
  <rect x="610" y="498" width="210" height="70" rx="8" fill="rgba(249,115,22,0.02)"/>
  <text x="650" y="528" font-family="Georgia, serif" font-size="13" font-weight="bold" fill="white">Pastilla Duo</text>
  <text x="650" y="548" font-family="Arial, sans-serif" font-size="9" fill="rgba(255,255,255,0.35)">Pigeon & seafood</text>
  <text x="650" y="565" font-family="Arial, sans-serif" font-size="12" font-weight="bold" fill="#f97316">320 MAD</text>
  <rect x="865" y="480" width="250" height="110" rx="10" fill="#1a100c" stroke="rgba(249,115,22,0.06)" stroke-width="1"/>
  <rect x="885" y="498" width="210" height="70" rx="8" fill="rgba(249,115,22,0.02)"/>
  <text x="925" y="528" font-family="Georgia, serif" font-size="13" font-weight="bold" fill="white">Harira Royale</text>
  <text x="925" y="548" font-family="Arial, sans-serif" font-size="9" fill="rgba(255,255,255,0.35)">Traditional soup, premium</text>
  <text x="925" y="565" font-family="Arial, sans-serif" font-size="12" font-weight="bold" fill="#f97316">120 MAD</text>
  <rect x="0" y="614" width="1200" height="60" fill="#0a0604"/>
  <text x="600" y="640" font-family="Arial, sans-serif" font-size="10" fill="rgba(255,255,255,0.18)" text-anchor="middle">Le Bazar — Marrakech, Morocco | reserve@lebazar.ma | +212 5XX-XXXXXX</text>
  <rect x="40" y="696" width="1120" height="80" rx="10" fill="#0a0604" stroke="rgba(249,115,22,0.06)" stroke-width="1"/>
  <text x="80" y="726" font-family="monospace" font-size="11" fill="rgba(255,255,255,0.22)">Preview: Le Bazar — Fine Dining Restaurant Website</text>
  <rect x="80" y="742" width="100" height="20" rx="4" fill="rgba(249,115,22,0.1)"/>
  <text x="94" y="756" font-family="Arial, sans-serif" font-size="8" fill="#f97316">ELEGANCE</text>
  <rect x="192" y="742" width="90" height="20" rx="4" fill="rgba(255,255,255,0.04)"/>
  <text x="203" y="756" font-family="Arial, sans-serif" font-size="8" fill="rgba(255,255,255,0.3)">MODERN</text>
</svg>
