<svg xmlns="http://www.w3.org/2000/svg" viewBox="0 0 800 600" fill="none">
  <rect width="800" height="600" fill="#0a0a0f"/>
  <!-- Phone mockup frame -->
  <rect x="20" y="30" width="280" height="540" rx="28" fill="#0d0d14" stroke="rgba(255,255,255,0.08)" stroke-width="1"/>
  <!-- Phone notch -->
  <rect x="120" y="38" width="80" height="6" rx="3" fill="#0a0a0f"/>
  <!-- App Content -->
  <rect x="20" y="58" width="280" height="50" fill="#0d0d14"/>
  <!-- App Header -->
  <text x="45" y="88" font-family="system-ui" font-size="16" font-weight="700" fill="#f97316" letter-spacing="-0.3">bite</text>
  <circle cx="255" cy="80" r="12" fill="rgba(249,115,22,0.1)" stroke="rgba(249,115,22,0.2)" stroke-width="0.5"/>
  <path d="M255 76 L255 84 M251 80 L259 80" stroke="#f97316" stroke-width="1.2" stroke-linecap="round"/>

  <!-- Search bar -->
  <rect x="35" y="115" width="250" height="36" rx="18" fill="rgba(255,255,255,0.04)" stroke="rgba(255,255,255,0.06)" stroke-width="0.5"/>
  <text x="50" y="138" font-family="system-ui" font-size="11" fill="rgba(255,255,255,0.25)">🔍 Search dishes, restaurants...</text>

  <!-- Category Pills -->
  <rect x="35" y="162" width="60" height="26" rx="13" fill="#f97316" opacity="0.15"/>
  <text x="44" y="179" font-family="system-ui" font-size="10" font-weight="500" fill="#f97316">All</text>
  <rect x="102" y="162" width="65" height="26" rx="13" fill="rgba(255,255,255,0.03)" stroke="rgba(255,255,255,0.06)" stroke-width="0.5"/>
  <text x="110" y="179" font-family="system-ui" font-size="10" fill="rgba(255,255,255,0.4)">Pizza</text>
  <rect x="174" y="162" width="75" height="26" rx="13" fill="rgba(255,255,255,0.03)" stroke="rgba(255,255,255,0.06)" stroke-width="0.5"/>
  <text x="182" y="179" font-family="system-ui" font-size="10" fill="rgba(255,255,255,0.4)">Burgers</text>
  <rect x="256" y="162" width="30" height="26" rx="13" fill="rgba(255,255,255,0.03)" stroke="rgba(255,255,255,0.06)" stroke-width="0.5"/>
  <text x="262" y="179" font-family="system-ui" font-size="10" fill="rgba(255,255,255,0.4)">+</text>

  <!-- Featured Restaurant Card -->
  <rect x="35" y="200" width="250" height="120" rx="12" fill="#15151e" stroke="rgba(255,255,255,0.05)" stroke-width="0.5"/>
  <rect x="35" y="200" width="250" height="70" rx="12" fill="#1a1a28"/>
  <rect x="35" y="258" width="250" height="12" fill="#1a1a28"/>
  <path d="M35 270 L35 270 Q35 258 35 258 L285 258 Q285 258 285 270 Z" fill="#15151e"/>
  <text x="50" y="225" font-family="system-ui" font-size="14" font-weight="700" fill="#fff">The Italian Kitchen</text>
  <rect x="50" y="236" width="40" height="14" rx="7" fill="rgba(249,115,22,0.15)"/>
  <text x="55" y="247" font-family="system-ui" font-size="8" font-weight="500" fill="#f97316">★ 4.8</text>
  <text x="95" y="247" font-family="system-ui" font-size="9" fill="rgba(255,255,255,0.3)">Italian · 25 min</text>
  <text x="50" y="280" font-family="system-ui" font-size="10" fill="rgba(255,255,255,0.5)">Handmade pasta · Wood-fired pizza · Classic tiramisu</text>
  <rect x="196" y="295" width="75" height="20" rx="10" fill="#f97316" opacity="0.9"/>
  <text x="203" y="309" font-family="system-ui" font-size="9" font-weight="600" fill="#0a0a0f">Order Now</text>
  <rect x="160" y="230" width="60" height="16" rx="8" fill="rgba(255,255,255,0.04)"/>
  <text x="168" y="241" font-family="system-ui" font-size="8" fill="rgba(255,255,255,0.3)">Free delivery</text>

  <!-- Nearby Restaurants -->
  <text x="35" y="340" font-family="system-ui" font-size="13" font-weight="600" fill="#fff">Nearby Restaurants</text>
  <text x="245" y="340" font-family="system-ui" font-size="9" fill="#f97316">See all →</text>

  <!-- Restaurant Item 1 -->
  <rect x="35" y="355" width="250" height="50" rx="10" fill="rgba(255,255,255,0.02)" stroke="rgba(255,255,255,0.04)" stroke-width="0.5"/>
  <rect x="35" y="355" width="50" height="50" rx="10" fill="#1a1a28"/>
  <text x="47" y="383" font-family="system-ui" font-size="10" fill="#f97316">🍕</text>
  <text x="95" y="376" font-family="system-ui" font-size="12" font-weight="500" fill="#fff">Pizza Romano</text>
  <text x="95" y="392" font-family="system-ui" font-size="9" fill="rgba(255,255,255,0.3)">★ 4.5 · Pizza · 20 min</text>
  <text x="260" y="383" font-family="system-ui" font-size="10" font-weight="600" fill="rgba(255,255,255,0.5)">$</text>

  <!-- Restaurant Item 2 -->
  <rect x="35" y="412" width="250" height="50" rx="10" fill="rgba(255,255,255,0.02)" stroke="rgba(255,255,255,0.04)" stroke-width="0.5"/>
  <rect x="35" y="412" width="50" height="50" rx="10" fill="#1a1a28"/>
  <text x="47" y="440" font-family="system-ui" font-size="10" fill="#f97316">🍔</text>
  <text x="95" y="433" font-family="system-ui" font-size="12" font-weight="500" fill="#fff">Burger District</text>
  <text x="95" y="449" font-family="system-ui" font-size="9" fill="rgba(255,255,255,0.3)">★ 4.7 · American · 15 min</text>
  <rect x="226" y="430" width="44" height="14" rx="7" fill="rgba(249,115,22,0.1)"/>
  <text x="233" y="440" font-family="system-ui" font-size="7" font-weight="500" fill="#f97316">Popular</text>

  <!-- Restaurant Item 3 -->
  <rect x="35" y="469" width="250" height="50" rx="10" fill="rgba(255,255,255,0.02)" stroke="rgba(255,255,255,0.04)" stroke-width="0.5"/>
  <rect x="35" y="469" width="50" height="50" rx="10" fill="#1a1a28"/>
  <text x="47" y="497" font-family="system-ui" font-size="10" fill="#f97316">🍣</text>
  <text x="95" y="490" font-family="system-ui" font-size="12" font-weight="500" fill="#fff">Sakura Sushi</text>
  <text x="95" y="506" font-family="system-ui" font-size="9" fill="rgba(255,255,255,0.3)">★ 4.9 · Japanese · 30 min</text>
  <text x="260" y="497" font-family="system-ui" font-size="10" font-weight="600" fill="rgba(255,255,255,0.5)">$$</text>

  <!-- Bottom Nav -->
  <rect x="20" y="538" width="280" height="32" fill="#0d0d14"/>
  <rect x="35" y="540" width="250" height="1" fill="rgba(255,255,255,0.04)"/>
  <text x="80" y="562" font-family="system-ui" font-size="10" fill="#f97316">🍕 Explore</text>
  <text x="146" y="562" font-family="system-ui" font-size="10" fill="rgba(255,255,255,0.3)">🔍 Search</text>
  <text x="215" y="562" font-family="system-ui" font-size="10" fill="rgba(255,255,255,0.3)">🛒 Orders</text>
  <text x="272" y="562" font-family="system-ui" font-size="10" fill="rgba(255,255,255,0.3)">👤</text>

  <!-- Right Panel: Restaurant Dashboard -->
  <rect x="330" y="30" width="450" height="540" rx="16" fill="#0d0d14" stroke="rgba(255,255,255,0.06)" stroke-width="0.5"/>

  <!-- Dashboard Header -->
  <text x="356" y="64" font-family="system-ui" font-size="16" font-weight="700" fill="#fff">Restaurant Dashboard</text>
  <text x="356" y="82" font-family="system-ui" font-size="10" fill="rgba(255,255,255,0.3)">The Italian Kitchen · Online</text>
  <rect x="660" y="50" width="60" height="22" rx="11" fill="#22c55e" opacity="0.15"/>
  <text x="671" y="64" font-family="system-ui" font-size="9" font-weight="500" fill="#22c55e">● Live Orders</text>

  <!-- Stats Row -->
  <rect x="356" y="100" width="130" height="80" rx="10" fill="#12121e" stroke="rgba(255,255,255,0.04)" stroke-width="0.5"/>
  <text x="370" y="120" font-family="system-ui" font-size="10" fill="rgba(255,255,255,0.35)">Today's Orders</text>
  <text x="370" y="150" font-family="system-ui" font-size="24" font-weight="700" fill="#fff">47</text>
  <text x="420" y="150" font-family="system-ui" font-size="10" fill="#22c55e">↑ 12</text>

  <rect x="498" y="100" width="130" height="80" rx="10" fill="#12121e" stroke="rgba(255,255,255,0.04)" stroke-width="0.5"/>
  <text x="512" y="120" font-family="system-ui" font-size="10" fill="rgba(255,255,255,0.35)">Revenue Today</text>
  <text x="512" y="150" font-family="system-ui" font-size="24" font-weight="700" fill="#fff">$2,847</text>
  <text x="570" y="150" font-family="system-ui" font-size="10" fill="#22c55e">↑ 18%</text>

  <rect x="640" y="100" width="124" height="80" rx="10" fill="#12121e" stroke="rgba(255,255,255,0.04)" stroke-width="0.5"/>
  <text x="654" y="120" font-family="system-ui" font-size="10" fill="rgba(255,255,255,0.35)">Avg. Prep Time</text>
  <text x="654" y="150" font-family="system-ui" font-size="24" font-weight="700" fill="#fff">18m</text>
  <text x="702" y="150" font-family="system-ui" font-size="10" fill="#f97316">↑ 2m</text>

  <!-- Order Timeline -->
  <text x="356" y="215" font-family="system-ui" font-size="13" font-weight="600" fill="#fff">Recent Orders</text>
  <rect x="356" y="228" width="408" height="1" fill="rgba(255,255,255,0.04)"/>

  <!-- Order 1 -->
  <rect x="356" y="240" width="408" height="50" rx="8" fill="rgba(255,255,255,0.02)" stroke="rgba(255,255,255,0.04)" stroke-width="0.5"/>
  <circle cx="374" cy="258" r="6" fill="#f97316" opacity="0.3"/>
  <text x="388" y="263" font-family="system-ui" font-size="11" font-weight="500" fill="#fff">#1042 · Table 7</text>
  <text x="388" y="278" font-family="system-ui" font-size="9" fill="rgba(255,255,255,0.3)">Margherita Pizza · Caesar Salad · Coke</text>
  <text x="668" y="263" font-family="system-ui" font-size="10" font-weight="500" fill="#f97316">$42.50</text>
  <rect x="650" y="272" width="55" height="14" rx="7" fill="#f97316" opacity="0.1"/>
  <text x="657" y="282" font-family="system-ui" font-size="7" font-weight="500" fill="#f97316">Preparing</text>
  <text x="740" y="263" font-family="system-ui" font-size="9" fill="rgba(255,255,255,0.2)">5m ago</text>

  <!-- Order 2 -->
  <rect x="356" y="297" width="408" height="50" rx="8" fill="rgba(255,255,255,0.02)" stroke="rgba(255,255,255,0.04)" stroke-width="0.5"/>
  <circle cx="374" cy="315" r="6" fill="#22c55e" opacity="0.3"/>
  <text x="388" y="320" font-family="system-ui" font-size="11" font-weight="500" fill="#fff">#1041 · Table 3</text>
  <text x="388" y="335" font-family="system-ui" font-size="9" fill="rgba(255,255,255,0.3)">Spaghetti Carbonara · Tiramisu · Wine</text>
  <text x="668" y="320" font-family="system-ui" font-size="10" font-weight="500" fill="#22c55e">$68.00</text>
  <rect x="650" y="329" width="55" height="14" rx="7" fill="#22c55e" opacity="0.1"/>
  <text x="655" y="339" font-family="system-ui" font-size="7" font-weight="500" fill="#22c55e">Delivered</text>
  <text x="740" y="320" font-family="system-ui" font-size="9" fill="rgba(255,255,255,0.2)">12m ago</text>

  <!-- Order 3 -->
  <rect x="356" y="354" width="408" height="50" rx="8" fill="rgba(255,255,255,0.02)" stroke="rgba(255,255,255,0.04)" stroke-width="0.5"/>
  <circle cx="374" cy="372" r="6" fill="#4facfe" opacity="0.3"/>
  <text x="388" y="377" font-family="system-ui" font-size="11" font-weight="500" fill="#fff">#1040 · Takeaway</text>
  <text x="388" y="392" font-family="system-ui" font-size="9" fill="rgba(255,255,255,0.3)">Bruschetta · Lasagna · Panna Cotta</text>
  <text x="668" y="377" font-family="system-ui" font-size="10" font-weight="500" fill="#4facfe">$54.30</text>
  <rect x="650" y="386" width="55" height="14" rx="7" fill="#4facfe" opacity="0.1"/>
  <text x="655" y="396" font-family="system-ui" font-size="7" font-weight="500" fill="#4facfe">Picked Up</text>
  <text x="740" y="377" font-family="system-ui" font-size="9" fill="rgba(255,255,255,0.2)">28m ago</text>

  <!-- Performance Chart -->
  <text x="356" y="440" font-family="system-ui" font-size="13" font-weight="600" fill="#fff">Orders This Week</text>
  <!-- Mini Bar Chart -->
  <rect x="360" y="458" width="22" height="55" rx="3" fill="url(#barGrad1)"/>
  <rect x="394" y="465" width="22" height="48" rx="3" fill="url(#barGrad1)"/>
  <rect x="428" y="450" width="22" height="63" rx="3" fill="url(#barGrad1)"/>
  <rect x="462" y="443" width="22" height="70" rx="3" fill="url(#barGrad1)"/>
  <rect x="496" y="455" width="22" height="58" rx="3" fill="url(#barGrad1)"/>
  <rect x="530" y="460" width="22" height="53" rx="3" fill="url(#barGrad1)"/>
  <rect x="564" y="448" width="22" height="65" rx="3" fill="url(#barGrad1)"/>
  <defs>
    <linearGradient id="barGrad1" x1="0" y1="0" x2="0" y2="1">
      <stop offset="0%" stop-color="rgba(249,115,22,0.4)"/>
      <stop offset="100%" stop-color="rgba(249,115,22,0.05)"/>
    </linearGradient>
  </defs>
  <rect x="360" y="458" width="22" height="55" rx="3" fill="none" stroke="rgba(249,115,22,0.2)" stroke-width="0.5"/>
  <rect x="394" y="465" width="22" height="48" rx="3" fill="none" stroke="rgba(249,115,22,0.2)" stroke-width="0.5"/>
  <rect x="428" y="450" width="22" height="63" rx="3" fill="none" stroke="rgba(249,115,22,0.2)" stroke-width="0.5"/>
  <rect x="462" y="443" width="22" height="70" rx="3" fill="none" stroke="rgba(249,115,22,0.2)" stroke-width="0.5"/>
  <rect x="496" y="455" width="22" height="58" rx="3" fill="none" stroke="rgba(249,115,22,0.2)" stroke-width="0.5"/>
  <rect x="530" y="460" width="22" height="53" rx="3" fill="none" stroke="rgba(249,115,22,0.2)" stroke-width="0.5"/>
  <rect x="564" y="448" width="22" height="65" rx="3" fill="none" stroke="rgba(249,115,22,0.2)" stroke-width="0.5"/>
  <text x="360" y="535" font-family="system-ui" font-size="8" fill="rgba(255,255,255,0.2)">Mon</text>
  <text x="394" y="535" font-family="system-ui" font-size="8" fill="rgba(255,255,255,0.2)">Tue</text>
  <text x="428" y="535" font-family="system-ui" font-size="8" fill="rgba(255,255,255,0.2)">Wed</text>
  <text x="462" y="535" font-family="system-ui" font-size="8" fill="rgba(255,255,255,0.2)">Thu</text>
  <text x="496" y="535" font-family="system-ui" font-size="8" fill="rgba(255,255,255,0.2)">Fri</text>
  <text x="530" y="535" font-family="system-ui" font-size="8" fill="rgba(255,255,255,0.2)">Sat</text>
  <text x="564" y="535" font-family="system-ui" font-size="8" fill="rgba(255,255,255,0.2)">Sun</text>

  <!-- Bottom Dashboard Stats -->
  <rect x="356" y="550" width="200" height="20" rx="10" fill="rgba(249,115,22,0.06)"/>
  <text x="366" y="563" font-family="system-ui" font-size="8" fill="#f97316">▲ Peak hours: 12:00-14:00 · 18:00-21:00</text>
</svg>
