<svg xmlns="http://www.w3.org/2000/svg" viewBox="0 0 800 500">
  <defs>
    <linearGradient id="lg1" x1="0%" y1="0%" x2="100%" y2="100%">
      <stop offset="0%" style="stop-color:#0a1628"/>
      <stop offset="50%" style="stop-color:#0f1f3d"/>
      <stop offset="100%" style="stop-color:#162a4e"/>
    </linearGradient>
    <linearGradient id="lg2" x1="0%" y1="0%" x2="100%" y2="100%">
      <stop offset="0%" style="stop-color:#3b82f6;stop-opacity:0.2"/>
      <stop offset="100%" style="stop-color:#3b82f6;stop-opacity:0.05"/>
    </linearGradient>
    <linearGradient id="accent" x1="0%" y1="0%" x2="100%" y2="0%">
      <stop offset="0%" style="stop-color:#3b82f6"/>
      <stop offset="100%" style="stop-color:#60a5fa"/>
    </linearGradient>
    <filter id="blur" x="-50%" y="-50%" width="200%" height="200%">
      <feGaussianBlur stdDeviation="40"/>
    </filter>
  </defs>
  <rect width="800" height="500" fill="url(#lg1)"/>
  <rect width="800" height="500" fill="url(#lg2)"/>
  <g opacity="0.03">
    <line x1="0" y1="100" x2="800" y2="100" stroke="#fff" stroke-width="0.5"/>
    <line x1="0" y1="200" x2="800" y2="200" stroke="#fff" stroke-width="0.5"/>
    <line x1="0" y1="300" x2="800" y2="300" stroke="#fff" stroke-width="0.5"/>
    <line x1="0" y1="400" x2="800" y2="400" stroke="#fff" stroke-width="0.5"/>
    <line x1="200" y1="0" x2="200" y2="500" stroke="#fff" stroke-width="0.5"/>
    <line x1="400" y1="0" x2="400" y2="500" stroke="#fff" stroke-width="0.5"/>
    <line x1="600" y1="0" x2="600" y2="500" stroke="#fff" stroke-width="0.5"/>
  </g>
  <ellipse cx="400" cy="250" rx="250" ry="200" fill="#3b82f6" opacity="0.06" filter="url(#blur)"/>
  <!-- Tooth icon -->
  <g transform="translate(400,200)" fill="none" stroke="#3b82f6" stroke-width="2.5" stroke-linecap="round" stroke-linejoin="round" opacity="0.9">
    <path d="M0,-60 C-20,-60 -35,-40 -35,-20 C-35,0 -25,10 -25,30 C-25,50 -15,65 -5,65 C0,65 0,55 0,55 C0,55 0,65 5,65 C15,65 25,50 25,30 C25,10 35,0 35,-20 C35,-40 20,-60 0,-60 Z"/>
    <!-- Root lines -->
    <line x1="-12" y1="55" x2="-8" y2="75"/>
    <line x1="0" y1="55" x2="0" y2="78"/>
    <line x1="12" y1="55" x2="8" y2="75"/>
  </g>
  <!-- Plus/minus medical symbol -->
  <g transform="translate(400,340)" fill="none" stroke="#3b82f6" stroke-width="2" stroke-linecap="round" opacity="0.3">
    <circle cx="0" cy="0" r="18"/>
    <line x1="-10" y1="0" x2="10" y2="0"/>
    <line x1="0" y1="-10" x2="0" y2="10"/>
  </g>
  <text x="400" y="420" font-family="System, sans-serif" font-size="11" fill="#3b82f6" text-anchor="middle" letter-spacing="3" opacity="0.6">DENTAL CLINIC</text>
</svg>
