<svg xmlns="http://www.w3.org/2000/svg" viewBox="0 0 800 600" fill="none">
  <rect width="800" height="600" fill="#0a0a0f"/>
  <rect x="0" y="0" width="800" height="56" fill="#0d0d14" rx="0"/>
  <rect x="0" y="56" width="800" height="1" fill="rgba(255,255,255,0.04)"/>
  <rect x="20" y="16" width="40" height="24" rx="6" fill="rgba(0,212,255,0.08)" stroke="rgba(0,212,255,0.15)" stroke-width="0.5"/>
  <text x="26" y="32" font-family="'Syne',sans-serif" font-size="10" font-weight="700" fill="#00d4ff">C</text>
  <text x="70" y="34" font-family="system-ui" font-size="15" font-weight="700" fill="#fff" letter-spacing="-0.3">FinTech</text>
  <text x="130" y="34" font-family="system-ui" font-size="12" fill="rgba(255,255,255,0.4)">Dashboard</text>
  <text x="210" y="34" font-family="system-ui" font-size="12" fill="rgba(255,255,255,0.25)">Portfolio</text>
  <text x="280" y="34" font-family="system-ui" font-size="12" fill="rgba(255,255,255,0.25)">Markets</text>
  <text x="345" y="34" font-family="system-ui" font-size="12" fill="rgba(255,255,255,0.25)">Transactions</text>
  <rect x="610" y="16" width="80" height="24" rx="12" fill="rgba(0,212,255,0.1)" stroke="rgba(0,212,255,0.15)" stroke-width="0.5"/>
  <text x="623" y="32" font-family="system-ui" font-size="10" font-weight="500" fill="#00d4ff">+ Deposit</text>
  <rect x="700" y="16" width="80" height="24" rx="12" fill="rgba(255,255,255,0.04)" stroke="rgba(255,255,255,0.06)" stroke-width="0.5"/>
  <text x="714" y="32" font-family="system-ui" font-size="10" fill="rgba(255,255,255,0.4)">Profile</text>
  <text x="30" y="90" font-family="system-ui" font-size="12" fill="rgba(255,255,255,0.4)">Welcome back, Alex</text>
  <text x="30" y="118" font-family="system-ui" font-size="28" font-weight="700" fill="#fff" letter-spacing="-0.5">$247,890.42</text>
  <text x="200" y="118" font-family="system-ui" font-size="12" fill="#22c55e">↑ $4,283.12</text>
  <text x="30" y="138" font-family="system-ui" font-size="11" fill="rgba(255,255,255,0.3)">Total Portfolio Value</text>
  <rect x="30" y="158" width="175" height="70" rx="10" fill="#12121e" stroke="rgba(255,255,255,0.04)" stroke-width="0.5"/>
  <text x="44" y="180" font-family="system-ui" font-size="10" fill="rgba(255,255,255,0.35)">Today's Return</text>
  <text x="44" y="206" font-family="system-ui" font-size="18" font-weight="700" fill="#22c55e">+$1,247.80</text>
  <rect x="218" y="158" width="175" height="70" rx="10" fill="#12121e" stroke="rgba(255,255,255,0.04)" stroke-width="0.5"/>
  <text x="232" y="180" font-family="system-ui" font-size="10" fill="rgba(255,255,255,0.35)">Assets Under Mgt</text>
  <text x="232" y="206" font-family="system-ui" font-size="18" font-weight="700" fill="#fff">$2.4M</text>
  <rect x="406" y="158" width="175" height="70" rx="10" fill="#12121e" stroke="rgba(255,255,255,0.04)" stroke-width="0.5"/>
  <text x="420" y="180" font-family="system-ui" font-size="10" fill="rgba(255,255,255,0.35)">Open Positions</text>
  <text x="420" y="206" font-family="system-ui" font-size="18" font-weight="700" fill="#fff">12</text>
  <rect x="594" y="158" width="176" height="70" rx="10" fill="#12121e" stroke="rgba(255,255,255,0.04)" stroke-width="0.5"/>
  <text x="608" y="180" font-family="system-ui" font-size="10" fill="rgba(255,255,255,0.35)">Risk Score</text>
  <text x="608" y="206" font-family="system-ui" font-size="18" font-weight="700" fill="#fff">Moderate</text>
  <rect x="30" y="245" width="500" height="200" rx="12" fill="#12121e" stroke="rgba(255,255,255,0.04)" stroke-width="0.5"/>
  <text x="46" y="270" font-family="system-ui" font-size="13" font-weight="600" fill="#fff">Portfolio Performance</text>
  <text x="48" y="300" font-family="system-ui" font-size="9" fill="rgba(255,255,255,0.15)">250k</text>
  <text x="48" y="330" font-family="system-ui" font-size="9" fill="rgba(255,255,255,0.15)">240k</text>
  <text x="48" y="360" font-family="system-ui" font-size="9" fill="rgba(255,255,255,0.15)">230k</text>
  <text x="48" y="390" font-family="system-ui" font-size="9" fill="rgba(255,255,255,0.15)">220k</text>
  <text x="48" y="420" font-family="system-ui" font-size="9" fill="rgba(255,255,255,0.15)">210k</text>
  <line x1="65" y1="297" x2="505" y2="297" stroke="rgba(255,255,255,0.03)" stroke-width="0.5"/>
  <line x1="65" y1="327" x2="505" y2="327" stroke="rgba(255,255,255,0.03)" stroke-width="0.5"/>
  <line x1="65" y1="357" x2="505" y2="357" stroke="rgba(255,255,255,0.03)" stroke-width="0.5"/>
  <line x1="65" y1="387" x2="505" y2="387" stroke="rgba(255,255,255,0.03)" stroke-width="0.5"/>
  <line x1="65" y1="417" x2="505" y2="417" stroke="rgba(255,255,255,0.03)" stroke-width="0.5"/>
  <defs>
    <linearGradient id="areaChart" x1="0" y1="0" x2="0" y2="1">
      <stop offset="0%" stop-color="rgba(34,197,94,0.2)"/>
      <stop offset="100%" stop-color="rgba(34,197,94,0)"/>
    </linearGradient>
  </defs>
  <path d="M70 420 L70 410 L95 415 L120 400 L145 405 L170 385 L195 390 L220 370 L245 375 L270 355 L295 360 L320 340 L345 345 L370 325 L395 330 L420 310 L445 315 L470 295 L495 300 L505 305 L505 420 Z" fill="url(#areaChart)"/>
  <path d="M70 410 L95 415 L120 400 L145 405 L170 385 L195 390 L220 370 L245 375 L270 355 L295 360 L320 340 L345 345 L370 325 L395 330 L420 310 L445 315 L470 295 L495 300 L505 305" stroke="#22c55e" stroke-width="2" fill="none" stroke-linecap="round" stroke-linejoin="round"/>
  <path d="M70 420 L95 418 L120 412 L145 415 L170 405 L195 408 L220 398 L245 400 L270 390 L295 392 L320 382 L345 384 L370 374 L395 376 L420 365 L445 368 L470 358 L495 360 L505 358" stroke="#00d4ff" stroke-width="1.5" fill="none" stroke-linecap="round" stroke-linejoin="round" opacity="0.6"/>
  <text x="75" y="435" font-family="system-ui" font-size="9" fill="rgba(255,255,255,0.15)">Jan</text>
  <text x="130" y="435" font-family="system-ui" font-size="9" fill="rgba(255,255,255,0.15)">Feb</text>
  <text x="190" y="435" font-family="system-ui" font-size="9" fill="rgba(255,255,255,0.15)">Mar</text>
  <text x="248" y="435" font-family="system-ui" font-size="9" fill="rgba(255,255,255,0.15)">Apr</text>
  <text x="305" y="435" font-family="system-ui" font-size="9" fill="rgba(255,255,255,0.15)">May</text>
  <text x="360" y="435" font-family="system-ui" font-size="9" fill="rgba(255,255,255,0.15)">Jun</text>
  <text x="420" y="435" font-family="system-ui" font-size="9" fill="rgba(255,255,255,0.15)">Jul</text>
  <text x="475" y="435" font-family="system-ui" font-size="9" fill="rgba(255,255,255,0.15)">Aug</text>
  <rect x="545" y="245" width="225" height="200" rx="12" fill="#12121e" stroke="rgba(255,255,255,0.04)" stroke-width="0.5"/>
  <text x="560" y="270" font-family="system-ui" font-size="13" font-weight="600" fill="#fff">Top Holdings</text>
  <rect x="560" y="282" width="195" height="1" fill="rgba(255,255,255,0.04)"/>
  <text x="560" y="312" font-family="system-ui" font-size="12" font-weight="600" fill="#fff">AAPL</text>
  <text x="560" y="326" font-family="system-ui" font-size="9" fill="rgba(255,255,255,0.3)">Apple Inc.</text>
  <text x="690" y="312" font-family="system-ui" font-size="12" font-weight="600" fill="#fff">$45,230</text>
  <text x="735" y="326" font-family="system-ui" font-size="9" fill="#22c55e">+3.2%</text>
  <text x="560" y="365" font-family="system-ui" font-size="12" font-weight="600" fill="#fff">TSLA</text>
  <text x="560" y="379" font-family="system-ui" font-size="9" fill="rgba(255,255,255,0.3)">Tesla Inc.</text>
  <text x="690" y="365" font-family="system-ui" font-size="12" font-weight="600" fill="#fff">$38,150</text>
  <text x="735" y="379" font-family="system-ui" font-size="9" fill="#ef4444">-1.8%</text>
  <text x="560" y="418" font-family="system-ui" font-size="12" font-weight="600" fill="#fff">MSFT</text>
  <text x="560" y="432" font-family="system-ui" font-size="9" fill="rgba(255,255,255,0.3)">Microsoft Corp.</text>
  <text x="690" y="418" font-family="system-ui" font-size="12" font-weight="600" fill="#fff">$32,890</text>
  <text x="735" y="432" font-family="system-ui" font-size="9" fill="#22c55e">+1.5%</text>
  <rect x="30" y="462" width="240" height="120" rx="12" fill="#12121e" stroke="rgba(255,255,255,0.04)" stroke-width="0.5"/>
  <text x="46" y="487" font-family="system-ui" font-size="12" font-weight="600" fill="#fff">Asset Allocation</text>
  <circle cx="100" cy="535" r="28" fill="none" stroke="#22c55e" stroke-width="8" stroke-dasharray="70 176"/>
  <circle cx="100" cy="535" r="28" fill="none" stroke="#00d4ff" stroke-width="8" stroke-dasharray="50 176" stroke-dashoffset="-70"/>
  <circle cx="100" cy="535" r="28" fill="none" stroke="#a855f7" stroke-width="8" stroke-dasharray="30 176" stroke-dashoffset="-120"/>
  <circle cx="100" cy="535" r="28" fill="none" stroke="#f97316" stroke-width="8" stroke-dasharray="26 176" stroke-dashoffset="-150"/>
  <circle cx="100" cy="535" r="12" fill="#12121e"/>
  <circle cx="150" cy="500" r="3" fill="#22c55e"/>
  <text x="158" y="504" font-family="system-ui" font-size="9" fill="rgba(255,255,255,0.4)">Stocks 40%</text>
  <circle cx="150" cy="518" r="3" fill="#00d4ff"/>
  <text x="158" y="522" font-family="system-ui" font-size="9" fill="rgba(255,255,255,0.4)">Bonds 28%</text>
  <circle cx="150" cy="536" r="3" fill="#a855f7"/>
  <text x="158" y="540" font-family="system-ui" font-size="9" fill="rgba(255,255,255,0.4)">Crypto 17%</text>
  <circle cx="150" cy="554" r="3" fill="#f97316"/>
  <text x="158" y="558" font-family="system-ui" font-size="9" fill="rgba(255,255,255,0.4)">Cash 15%</text>
  <rect x="285" y="462" width="485" height="120" rx="12" fill="#12121e" stroke="rgba(255,255,255,0.04)" stroke-width="0.5"/>
  <text x="301" y="487" font-family="system-ui" font-size="12" font-weight="600" fill="#fff">Recent Transactions</text>
  <rect x="301" y="498" width="453" height="1" fill="rgba(255,255,255,0.04)"/>
  <circle cx="314" cy="518" r="4" fill="#22c55e"/>
  <text x="326" y="522" font-family="system-ui" font-size="11" fill="#fff">Buy AAPL</text>
  <text x="326" y="536" font-family="system-ui" font-size="9" fill="rgba(255,255,255,0.3)">Market buy · 50 shares</text>
  <text x="680" y="522" font-family="system-ui" font-size="11" font-weight="500" fill="#22c55e">+$4,500</text>
  <text x="730" y="522" font-family="system-ui" font-size="9" fill="rgba(255,255,255,0.2)">2h ago</text>
  <circle cx="314" cy="548" r="4" fill="#ef4444"/>
  <text x="326" y="552" font-family="system-ui" font-size="11" fill="#fff">Sell TSLA</text>
  <text x="326" y="566" font-family="system-ui" font-size="9" fill="rgba(255,255,255,0.3)">Limit sell · 25 shares</text>
  <text x="680" y="552" font-family="system-ui" font-size="11" font-weight="500" fill="#ef4444">-$2,300</text>
  <text x="730" y="552" font-family="system-ui" font-size="9" fill="rgba(255,255,255,0.2)">5h ago</text>
  <rect x="285" y="580" width="485" height="2" fill="rgba(0,212,255,0.06)"/>
  <text x="301" y="580" font-family="system-ui" font-size="7" fill="rgba(0,212,255,0.3)">CONCEPT PROJECT — PORTFOLIO EXEMPLAR</text>
</svg>
