<svg xmlns="http://www.w3.org/2000/svg" viewBox="0 0 800 600" fill="none">
  <rect width="800" height="600" fill="#0a0a0f"/>
  <rect x="0" y="0" width="56" height="600" fill="#0d0d14"/>
  <rect x="1" y="0" width="1" height="600" fill="rgba(255,255,255,0.04)"/>
  <circle cx="28" cy="26" r="8" fill="#4facfe" opacity="0.4"/>
  <circle cx="28" cy="26" r="4" fill="#4facfe"/>
  <rect x="12" y="60" width="32" height="2" rx="1" fill="rgba(255,255,255,0.08)"/>
  <rect x="12" y="70" width="32" height="2" rx="1" fill="rgba(255,255,255,0.08)"/>
  <circle cx="28" cy="130" r="6" fill="rgba(79,172,254,0.15)" stroke="rgba(79,172,254,0.3)" stroke-width="0.5"/>
  <circle cx="28" cy="170" r="6" fill="rgba(255,255,255,0.04)" stroke="rgba(255,255,255,0.08)" stroke-width="0.5"/>
  <circle cx="28" cy="210" r="6" fill="rgba(255,255,255,0.04)" stroke="rgba(255,255,255,0.08)" stroke-width="0.5"/>
  <circle cx="28" cy="250" r="6" fill="rgba(255,255,255,0.04)" stroke="rgba(255,255,255,0.08)" stroke-width="0.5"/>
  <circle cx="28" cy="550" r="5" fill="rgba(255,255,255,0.06)"/>
  <rect x="56" y="0" width="744" height="56" fill="#0d0d14"/>
  <rect x="56" y="56" width="744" height="1" fill="rgba(255,255,255,0.04)"/>
  <text x="76" y="34" font-family="system-ui" font-size="14" font-weight="600" fill="#fff" letter-spacing="-0.2">GrowthOS</text>
  <rect x="170" y="16" width="120" height="24" rx="12" fill="rgba(79,172,254,0.08)" stroke="rgba(79,172,254,0.12)" stroke-width="0.5"/>
  <text x="182" y="32" font-family="system-ui" font-size="9" font-weight="500" fill="#4facfe">AI-Powered</text>
  <rect x="650" y="18" width="55" height="20" rx="10" fill="rgba(79,172,254,0.1)" stroke="rgba(79,172,254,0.15)" stroke-width="0.5"/>
  <text x="660" y="32" font-family="system-ui" font-size="9" font-weight="500" fill="#4facfe">v2.0</text>
  <rect x="72" y="78" width="165" height="80" rx="10" fill="#12121e" stroke="rgba(255,255,255,0.05)" stroke-width="0.5"/>
  <text x="86" y="100" font-family="system-ui" font-size="10" fill="rgba(255,255,255,0.4)">Workflows Active</text>
  <text x="86" y="130" font-family="system-ui" font-size="22" font-weight="700" fill="#fff">24</text>
  <rect x="252" y="78" width="165" height="80" rx="10" fill="#12121e" stroke="rgba(255,255,255,0.05)" stroke-width="0.5"/>
  <text x="266" y="100" font-family="system-ui" font-size="10" fill="rgba(255,255,255,0.4)">Tasks Automated</text>
  <text x="266" y="130" font-family="system-ui" font-size="22" font-weight="700" fill="#fff">1,847</text>
  <rect x="432" y="78" width="165" height="80" rx="10" fill="#12121e" stroke="rgba(255,255,255,0.05)" stroke-width="0.5"/>
  <text x="446" y="100" font-family="system-ui" font-size="10" fill="rgba(255,255,255,0.4)">Time Saved</text>
  <text x="446" y="130" font-family="system-ui" font-size="22" font-weight="700" fill="#fff">320h</text>
  <rect x="612" y="78" width="172" height="80" rx="10" fill="#12121e" stroke="rgba(255,255,255,0.05)" stroke-width="0.5"/>
  <text x="626" y="100" font-family="system-ui" font-size="10" fill="rgba(255,255,255,0.4)">Integrations</text>
  <text x="626" y="130" font-family="system-ui" font-size="22" font-weight="700" fill="#fff">12</text>
  <rect x="72" y="175" width="500" height="250" rx="10" fill="#12121e" stroke="rgba(255,255,255,0.05)" stroke-width="0.5"/>
  <text x="88" y="200" font-family="system-ui" font-size="13" font-weight="600" fill="#fff">Automation Overview</text>
  <text x="210" y="200" font-family="system-ui" font-size="10" fill="rgba(255,255,255,0.3)">|</text>
  <text x="220" y="200" font-family="system-ui" font-size="10" fill="rgba(255,255,255,0.35)">This Week</text>
  <defs>
    <linearGradient id="areaGrad" x1="0" y1="0" x2="0" y2="1">
      <stop offset="0%" stop-color="rgba(79,172,254,0.25)"/>
      <stop offset="100%" stop-color="rgba(79,172,254,0)"/>
    </linearGradient>
  </defs>
  <path d="M125 368 L145 340 L165 350 L185 320 L205 330 L225 300 L245 310 L265 270 L285 280 L305 250 L325 260 L345 230 L365 240 L385 210 L405 225 L425 195 L445 205 L465 185 L485 200 L505 170 L530 180 L545 175 L545 368 Z" fill="url(#areaGrad)"/>
  <path d="M125 368 L145 340 L165 350 L185 320 L205 330 L225 300 L245 310 L265 270 L285 280 L305 250 L325 260 L345 230 L365 240 L385 210 L405 225 L425 195 L445 205 L465 185 L485 200 L505 170 L530 180 L545 175" stroke="#4facfe" stroke-width="2" fill="none" stroke-linecap="round" stroke-linejoin="round"/>
  <circle cx="225" cy="300" r="3" fill="#4facfe" stroke="#0a0a0f" stroke-width="1.5"/>
  <circle cx="305" cy="250" r="3" fill="#4facfe" stroke="#0a0a0f" stroke-width="1.5"/>
  <circle cx="425" cy="195" r="4" fill="#4facfe" stroke="#0a0a0f" stroke-width="2"/>
  <text x="130" y="390" font-family="system-ui" font-size="9" fill="rgba(255,255,255,0.2)">Mon</text>
  <text x="195" y="390" font-family="system-ui" font-size="9" fill="rgba(255,255,255,0.2)">Tue</text>
  <text x="260" y="390" font-family="system-ui" font-size="9" fill="rgba(255,255,255,0.2)">Wed</text>
  <text x="320" y="390" font-family="system-ui" font-size="9" fill="rgba(255,255,255,0.2)">Thu</text>
  <text x="380" y="390" font-family="system-ui" font-size="9" fill="rgba(255,255,255,0.2)">Fri</text>
  <text x="438" y="390" font-family="system-ui" font-size="9" fill="rgba(255,255,255,0.2)">Sat</text>
  <text x="495" y="390" font-family="system-ui" font-size="9" fill="rgba(255,255,255,0.2)">Sun</text>
  <rect x="588" y="175" width="196" height="115" rx="10" fill="#12121e" stroke="rgba(255,255,255,0.05)" stroke-width="0.5"/>
  <text x="602" y="200" font-family="system-ui" font-size="12" font-weight="600" fill="#fff">Active Workflows</text>
  <rect x="602" y="212" width="168" height="1" fill="rgba(255,255,255,0.04)"/>
  <text x="602" y="232" font-family="system-ui" font-size="10" fill="rgba(255,255,255,0.5)">Content Generation</text>
  <rect x="602" y="240" width="60" height="2" rx="1" fill="#4facfe" opacity="0.6"/>
  <text x="602" y="256" font-family="system-ui" font-size="10" fill="rgba(255,255,255,0.5)">SEO Analysis</text>
  <rect x="602" y="264" width="40" height="2" rx="1" fill="#4facfe" opacity="0.4"/>
  <text x="602" y="278" font-family="system-ui" font-size="10" fill="rgba(255,255,255,0.5)">Report Generation</text>
  <rect x="602" y="286" width="30" height="2" rx="1" fill="#4facfe" opacity="0.3"/>
  <rect x="588" y="305" width="196" height="120" rx="10" fill="#12121e" stroke="rgba(255,255,255,0.05)" stroke-width="0.5"/>
  <text x="602" y="328" font-family="system-ui" font-size="12" font-weight="600" fill="#fff">Integration Status</text>
  <rect x="602" y="340" width="168" height="1" fill="rgba(255,255,255,0.04)"/>
  <circle cx="610" cy="360" r="3" fill="#22c55e"/>
  <text x="620" y="364" font-family="system-ui" font-size="10" fill="rgba(255,255,255,0.5)">Supabase</text>
  <circle cx="610" cy="380" r="3" fill="#22c55e"/>
  <text x="620" y="384" font-family="system-ui" font-size="10" fill="rgba(255,255,255,0.5)">OpenAI</text>
  <circle cx="610" cy="400" r="3" fill="#22c55e"/>
  <text x="620" y="404" font-family="system-ui" font-size="10" fill="rgba(255,255,255,0.5)">Slack</text>
  <rect x="72" y="442" width="305" height="138" rx="10" fill="#12121e" stroke="rgba(255,255,255,0.05)" stroke-width="0.5"/>
  <text x="88" y="465" font-family="system-ui" font-size="12" font-weight="600" fill="#fff">AI Task Distribution</text>
  <rect x="100" y="500" width="24" height="55" rx="3" fill="rgba(79,172,254,0.3)"/>
  <rect x="136" y="490" width="24" height="65" rx="3" fill="rgba(79,172,254,0.4)"/>
  <rect x="172" y="480" width="24" height="75" rx="3" fill="rgba(79,172,254,0.5)"/>
  <rect x="208" y="475" width="24" height="80" rx="3" fill="rgba(79,172,254,0.6)"/>
  <rect x="244" y="485" width="24" height="70" rx="3" fill="rgba(79,172,254,0.35)"/>
  <rect x="280" y="495" width="24" height="60" rx="3" fill="rgba(79,172,254,0.25)"/>
  <rect x="316" y="505" width="24" height="50" rx="3" fill="rgba(79,172,254,0.2)"/>
  <text x="100" y="558" font-family="system-ui" font-size="8" fill="rgba(255,255,255,0.2)">Content</text>
  <text x="136" y="558" font-family="system-ui" font-size="8" fill="rgba(255,255,255,0.2)">SEO</text>
  <text x="172" y="558" font-family="system-ui" font-size="8" fill="rgba(255,255,255,0.2)">Email</text>
  <text x="205" y="558" font-family="system-ui" font-size="8" fill="rgba(255,255,255,0.2)">Social</text>
  <text x="244" y="558" font-family="system-ui" font-size="8" fill="rgba(255,255,255,0.2)">Reports</text>
  <text x="278" y="558" font-family="system-ui" font-size="8" fill="rgba(255,255,255,0.2)">Data</text>
  <text x="314" y="558" font-family="system-ui" font-size="8" fill="rgba(255,255,255,0.2)">Other</text>
  <rect x="392" y="442" width="392" height="138" rx="10" fill="#12121e" stroke="rgba(255,255,255,0.05)" stroke-width="0.5"/>
  <text x="408" y="465" font-family="system-ui" font-size="12" font-weight="600" fill="#fff">Recent Runs</text>
  <rect x="408" y="478" width="360" height="1" fill="rgba(255,255,255,0.04)"/>
  <circle cx="416" cy="496" r="3" fill="#22c55e"/>
  <text x="426" y="500" font-family="system-ui" font-size="10" fill="rgba(255,255,255,0.55)">Content generation completed</text>
  <text x="710" y="500" font-family="system-ui" font-size="9" fill="rgba(255,255,255,0.2)">2m ago</text>
  <circle cx="416" cy="516" r="3" fill="#22c55e"/>
  <text x="426" y="520" font-family="system-ui" font-size="10" fill="rgba(255,255,255,0.55)">SEO audit report generated</text>
  <text x="710" y="520" font-family="system-ui" font-size="9" fill="rgba(255,255,255,0.2)">15m ago</text>
  <circle cx="416" cy="536" r="3" fill="#4facfe"/>
  <text x="426" y="540" font-family="system-ui" font-size="10" fill="rgba(255,255,255,0.55)">Slack notification sent</text>
  <text x="710" y="540" font-family="system-ui" font-size="9" fill="rgba(255,255,255,0.2)">1h ago</text>
  <circle cx="416" cy="556" r="3" fill="#22c55e"/>
  <text x="426" y="560" font-family="system-ui" font-size="10" fill="rgba(255,255,255,0.55)">Data sync: Supabase → OpenAI</text>
  <text x="710" y="560" font-family="system-ui" font-size="9" fill="rgba(255,255,255,0.2)">2h ago</text>
</svg>
