<svg xmlns="http://www.w3.org/2000/svg" viewBox="0 0 800 600" fill="none">
  <rect width="800" height="600" fill="#0a0a0f"/>
  <!-- Sidebar -->
  <rect x="0" y="0" width="56" height="600" fill="#0d0d14"/>
  <rect x="1" y="0" width="1" height="600" fill="rgba(255,255,255,0.04)"/>
  <circle cx="28" cy="26" r="8" fill="#a855f7" opacity="0.4"/>
  <circle cx="28" cy="26" r="4" fill="#a855f7"/>
  <rect x="12" y="60" width="32" height="2" rx="1" fill="rgba(255,255,255,0.08)"/>
  <rect x="12" y="70" width="32" height="2" rx="1" fill="rgba(255,255,255,0.08)"/>
  <rect x="12" y="80" width="20" height="2" rx="1" fill="rgba(255,255,255,0.08)"/>
  <circle cx="28" cy="130" r="6" fill="rgba(168,85,247,0.15)" stroke="rgba(168,85,247,0.3)" stroke-width="0.5"/>
  <circle cx="28" cy="170" r="6" fill="rgba(255,255,255,0.04)" stroke="rgba(255,255,255,0.08)" stroke-width="0.5"/>
  <circle cx="28" cy="210" r="6" fill="rgba(255,255,255,0.04)" stroke="rgba(255,255,255,0.08)" stroke-width="0.5"/>
  <circle cx="28" cy="250" r="6" fill="rgba(255,255,255,0.04)" stroke="rgba(255,255,255,0.08)" stroke-width="0.5"/>
  <circle cx="28" cy="290" r="6" fill="rgba(255,255,255,0.04)" stroke="rgba(255,255,255,0.08)" stroke-width="0.5"/>
  <circle cx="28" cy="550" r="5" fill="rgba(255,255,255,0.06)"/>

  <!-- Top Bar -->
  <rect x="56" y="0" width="744" height="56" fill="#0d0d14"/>
  <rect x="56" y="56" width="744" height="1" fill="rgba(255,255,255,0.04)"/>
  <text x="76" y="34" font-family="system-ui" font-size="14" font-weight="600" fill="#fff" letter-spacing="-0.2">Analytics Dashboard</text>
  <rect x="220" y="16" width="120" height="24" rx="12" fill="rgba(255,255,255,0.03)" stroke="rgba(255,255,255,0.06)" stroke-width="0.5"/>
  <text x="232" y="32" font-family="system-ui" font-size="10" fill="rgba(255,255,255,0.4)">Last 30 days</text>
  <rect x="650" y="18" width="34" height="20" rx="10" fill="rgba(255,255,255,0.04)" stroke="rgba(255,255,255,0.06)" stroke-width="0.5"/>
  <rect x="664" y="22" width="8" height="12" rx="4" fill="rgba(255,255,255,0.15)"/>
  <rect x="695" y="18" width="20" height="20" rx="10" fill="rgba(255,255,255,0.04)"/>
  <circle cx="705" cy="28" r="6" fill="rgba(168,85,247,0.2)"/>
  <rect x="725" y="18" width="55" height="20" rx="10" fill="rgba(168,85,247,0.1)" stroke="rgba(168,85,247,0.15)" stroke-width="0.5"/>
  <text x="734" y="32" font-family="system-ui" font-size="9" font-weight="500" fill="#a855f7">Upgrade</text>

  <!-- KPI Cards Row -->
  <rect x="72" y="78" width="165" height="90" rx="10" fill="#12121e" stroke="rgba(255,255,255,0.05)" stroke-width="0.5"/>
  <text x="86" y="100" font-family="system-ui" font-size="10" fill="rgba(255,255,255,0.4)">Total Revenue</text>
  <text x="86" y="128" font-family="system-ui" font-size="22" font-weight="700" fill="#fff">$128,430</text>
  <text x="86" y="148" font-family="system-ui" font-size="10" fill="#22c55e">↑ 24.8% vs last month</text>
  <rect x="195" y="90" width="4" height="4" rx="2" fill="#22c55e"/>

  <rect x="252" y="78" width="165" height="90" rx="10" fill="#12121e" stroke="rgba(255,255,255,0.05)" stroke-width="0.5"/>
  <text x="266" y="100" font-family="system-ui" font-size="10" fill="rgba(255,255,255,0.4)">Active Users</text>
  <text x="266" y="128" font-family="system-ui" font-size="22" font-weight="700" fill="#fff">24,891</text>
  <text x="266" y="148" font-family="system-ui" font-size="10" fill="#22c55e">↑ 12.3% vs last month</text>

  <rect x="432" y="78" width="165" height="90" rx="10" fill="#12121e" stroke="rgba(255,255,255,0.05)" stroke-width="0.5"/>
  <text x="446" y="100" font-family="system-ui" font-size="10" fill="rgba(255,255,255,0.4)">Conversion Rate</text>
  <text x="446" y="128" font-family="system-ui" font-size="22" font-weight="700" fill="#fff">3.42%</text>
  <text x="446" y="148" font-family="system-ui" font-size="10" fill="#22c55e">↑ 0.8% vs last month</text>

  <rect x="612" y="78" width="172" height="90" rx="10" fill="#12121e" stroke="rgba(255,255,255,0.05)" stroke-width="0.5"/>
  <text x="626" y="100" font-family="system-ui" font-size="10" fill="rgba(255,255,255,0.4)">Avg. Session</text>
  <text x="626" y="128" font-family="system-ui" font-size="22" font-weight="700" fill="#fff">4m 32s</text>
  <text x="626" y="148" font-family="system-ui" font-size="10" fill="#22c55e">↑ 18.2% vs last month</text>

  <!-- Main Chart Area -->
  <rect x="72" y="185" width="500" height="240" rx="10" fill="#12121e" stroke="rgba(255,255,255,0.05)" stroke-width="0.5"/>
  <text x="88" y="210" font-family="system-ui" font-size="13" font-weight="600" fill="#fff">Revenue Overview</text>
  <text x="210" y="210" font-family="system-ui" font-size="10" fill="rgba(255,255,255,0.3)">|</text>
  <text x="220" y="210" font-family="system-ui" font-size="10" fill="rgba(255,255,255,0.35)">Monthly</text>
  <text x="270" y="210" font-family="system-ui" font-size="10" fill="rgba(255,255,255,0.2)">Weekly</text>
  <text x="318" y="210" font-family="system-ui" font-size="10" fill="rgba(255,255,255,0.2)">Daily</text>

  <!-- Y-axis labels -->
  <text x="96" y="248" font-family="system-ui" font-size="9" fill="rgba(255,255,255,0.2)">60k</text>
  <text x="96" y="285" font-family="system-ui" font-size="9" fill="rgba(255,255,255,0.2)">40k</text>
  <text x="96" y="322" font-family="system-ui" font-size="9" fill="rgba(255,255,255,0.2)">20k</text>
  <text x="96" y="360" font-family="system-ui" font-size="9" fill="rgba(255,255,255,0.2)">0</text>

  <!-- Grid lines -->
  <line x1="120" y1="245" x2="545" y2="245" stroke="rgba(255,255,255,0.03)" stroke-width="0.5"/>
  <line x1="120" y1="282" x2="545" y2="282" stroke="rgba(255,255,255,0.03)" stroke-width="0.5"/>
  <line x1="120" y1="320" x2="545" y2="320" stroke="rgba(255,255,255,0.03)" stroke-width="0.5"/>
  <line x1="120" y1="358" x2="545" y2="358" stroke="rgba(255,255,255,0.03)" stroke-width="0.5"/>

  <!-- Area under line -->
  <path d="M125 358 L125 358 L145 330 L165 340 L185 310 L205 320 L225 290 L245 300 L265 260 L285 270 L305 240 L325 250 L345 220 L365 230 L385 200 L405 215 L425 185 L445 195 L465 175 L485 190 L505 160 L530 170 L545 175 L545 358 Z" fill="url(#areaGrad1)"/>

  <!-- Line chart -->
  <path d="M125 358 L145 330 L165 340 L185 310 L205 320 L225 290 L245 300 L265 260 L285 270 L305 240 L325 250 L345 220 L365 230 L385 200 L405 215 L425 185 L445 195 L465 175 L485 190 L505 160 L530 170 L545 175" stroke="#a855f7" stroke-width="2" fill="none" stroke-linecap="round" stroke-linejoin="round"/>
  <defs>
    <linearGradient id="areaGrad1" x1="0" y1="0" x2="0" y2="1">
      <stop offset="0%" stop-color="rgba(168,85,247,0.25)"/>
      <stop offset="100%" stop-color="rgba(168,85,247,0)"/>
    </linearGradient>
    <linearGradient id="barGrad" x1="0" y1="0" x2="0" y2="1">
      <stop offset="0%" stop-color="rgba(168,85,247,0.4)"/>
      <stop offset="100%" stop-color="rgba(168,85,247,0.05)"/>
    </linearGradient>
    <linearGradient id="barGrad2" x1="0" y1="0" x2="0" y2="1">
      <stop offset="0%" stop-color="rgba(168,85,247,0.15)"/>
      <stop offset="100%" stop-color="rgba(168,85,247,0)"/>
    </linearGradient>
  </defs>

  <!-- Dots on line -->
  <circle cx="225" cy="290" r="3" fill="#a855f7" stroke="#0a0a0f" stroke-width="1.5"/>
  <circle cx="305" cy="240" r="3" fill="#a855f7" stroke="#0a0a0f" stroke-width="1.5"/>
  <circle cx="425" cy="185" r="4" fill="#a855f7" stroke="#0a0a0f" stroke-width="2"/>
  <circle cx="505" cy="160" r="3" fill="#a855f7" stroke="#0a0a0f" stroke-width="1.5"/>

  <!-- X-axis labels -->
  <text x="130" y="380" font-family="system-ui" font-size="9" fill="rgba(255,255,255,0.2)">Jan</text>
  <text x="195" y="380" font-family="system-ui" font-size="9" fill="rgba(255,255,255,0.2)">Feb</text>
  <text x="260" y="380" font-family="system-ui" font-size="9" fill="rgba(255,255,255,0.2)">Mar</text>
  <text x="320" y="380" font-family="system-ui" font-size="9" fill="rgba(255,255,255,0.2)">Apr</text>
  <text x="380" y="380" font-family="system-ui" font-size="9" fill="rgba(255,255,255,0.2)">May</text>
  <text x="438" y="380" font-family="system-ui" font-size="9" fill="rgba(255,255,255,0.2)">Jun</text>
  <text x="495" y="380" font-family="system-ui" font-size="9" fill="rgba(255,255,255,0.2)">Jul</text>

  <!-- Legend -->
  <circle cx="380" y="395" r="3" fill="#a855f7"/>
  <text x="388" y="399" font-family="system-ui" font-size="9" fill="rgba(255,255,255,0.3)">Revenue 2026</text>

  <!-- Right Panel: Top Pages & Traffic -->
  <rect x="588" y="185" width="196" height="115" rx="10" fill="#12121e" stroke="rgba(255,255,255,0.05)" stroke-width="0.5"/>
  <text x="602" y="208" font-family="system-ui" font-size="12" font-weight="600" fill="#fff">Top Pages</text>
  <rect x="602" y="220" width="168" height="1" fill="rgba(255,255,255,0.04)"/>
  <text x="602" y="240" font-family="system-ui" font-size="10" fill="rgba(255,255,255,0.5)">/dashboard</text>
  <text x="750" y="240" font-family="system-ui" font-size="10" fill="rgba(255,255,255,0.3)">12.4k</text>
  <rect x="602" y="248" width="60" height="2" rx="1" fill="#a855f7" opacity="0.6"/>
  <text x="602" y="262" font-family="system-ui" font-size="10" fill="rgba(255,255,255,0.5)">/analytics</text>
  <text x="750" y="262" font-family="system-ui" font-size="10" fill="rgba(255,255,255,0.3)">8.2k</text>
  <rect x="602" y="270" width="40" height="2" rx="1" fill="#a855f7" opacity="0.4"/>
  <text x="602" y="284" font-family="system-ui" font-size="10" fill="rgba(255,255,255,0.5)">/reports</text>
  <text x="750" y="284" font-family="system-ui" font-size="10" fill="rgba(255,255,255,0.3)">5.1k</text>
  <rect x="602" y="292" width="30" height="2" rx="1" fill="#a855f7" opacity="0.3"/>

  <!-- Traffic Sources -->
  <rect x="588" y="315" width="196" height="110" rx="10" fill="#12121e" stroke="rgba(255,255,255,0.05)" stroke-width="0.5"/>
  <text x="602" y="338" font-family="system-ui" font-size="12" font-weight="600" fill="#fff">Traffic Sources</text>
  <rect x="602" y="350" width="168" height="1" fill="rgba(255,255,255,0.04)"/>
  <!-- Legend items -->
  <circle cx="606" cy="370" r="3" fill="#a855f7"/>
  <text x="614" y="374" font-family="system-ui" font-size="10" fill="rgba(255,255,255,0.5)">Organic Search</text>
  <text x="748" y="374" font-family="system-ui" font-size="10" fill="rgba(255,255,255,0.3)">45%</text>
  <circle cx="606" cy="388" r="3" fill="#4facfe"/>
  <text x="614" y="392" font-family="system-ui" font-size="10" fill="rgba(255,255,255,0.5)">Direct</text>
  <text x="748" y="392" font-family="system-ui" font-size="10" fill="rgba(255,255,255,0.3)">25%</text>
  <circle cx="606" cy="406" r="3" fill="#f97316"/>
  <text x="614" y="410" font-family="system-ui" font-size="10" fill="rgba(255,255,255,0.5)">Social</text>
  <text x="748" y="410" font-family="system-ui" font-size="10" fill="rgba(255,255,255,0.3)">18%</text>

  <!-- Bottom Bar Chart Section -->
  <rect x="72" y="442" width="305" height="138" rx="10" fill="#12121e" stroke="rgba(255,255,255,0.05)" stroke-width="0.5"/>
  <text x="88" y="465" font-family="system-ui" font-size="12" font-weight="600" fill="#fff">Weekly Active Users</text>
  <!-- Bar chart -->
  <rect x="100" y="500" width="24" height="40" rx="3" fill="url(#barGrad)"/>
  <rect x="100" y="500" width="24" height="40" rx="3" fill="none" stroke="rgba(168,85,247,0.3)" stroke-width="0.5"/>
  <rect x="136" y="490" width="24" height="50" rx="3" fill="url(#barGrad)"/>
  <rect x="136" y="490" width="24" height="50" rx="3" fill="none" stroke="rgba(168,85,247,0.3)" stroke-width="0.5"/>
  <rect x="172" y="480" width="24" height="60" rx="3" fill="url(#barGrad)"/>
  <rect x="172" y="480" width="24" height="60" rx="3" fill="none" stroke="rgba(168,85,247,0.3)" stroke-width="0.5"/>
  <rect x="208" y="475" width="24" height="65" rx="3" fill="url(#barGrad)"/>
  <rect x="208" y="475" width="24" height="65" rx="3" fill="none" stroke="rgba(168,85,247,0.3)" stroke-width="0.5"/>
  <rect x="244" y="485" width="24" height="55" rx="3" fill="url(#barGrad)"/>
  <rect x="244" y="485" width="24" height="55" rx="3" fill="none" stroke="rgba(168,85,247,0.3)" stroke-width="0.5"/>
  <rect x="280" y="495" width="24" height="45" rx="3" fill="url(#barGrad)"/>
  <rect x="280" y="495" width="24" height="45" rx="3" fill="none" stroke="rgba(168,85,247,0.3)" stroke-width="0.5"/>
  <rect x="316" y="505" width="24" height="35" rx="3" fill="url(#barGrad)"/>
  <rect x="316" y="505" width="24" height="35" rx="3" fill="none" stroke="rgba(168,85,247,0.3)" stroke-width="0.5"/>
  <text x="100" y="558" font-family="system-ui" font-size="8" fill="rgba(255,255,255,0.2)">Mon</text>
  <text x="132" y="558" font-family="system-ui" font-size="8" fill="rgba(255,255,255,0.2)">Tue</text>
  <text x="168" y="558" font-family="system-ui" font-size="8" fill="rgba(255,255,255,0.2)">Wed</text>
  <text x="205" y="558" font-family="system-ui" font-size="8" fill="rgba(255,255,255,0.2)">Thu</text>
  <text x="241" y="558" font-family="system-ui" font-size="8" fill="rgba(255,255,255,0.2)">Fri</text>
  <text x="278" y="558" font-family="system-ui" font-size="8" fill="rgba(255,255,255,0.2)">Sat</text>
  <text x="314" y="558" font-family="system-ui" font-size="8" fill="rgba(255,255,255,0.2)">Sun</text>

  <!-- Recent Activity -->
  <rect x="392" y="442" width="392" height="138" rx="10" fill="#12121e" stroke="rgba(255,255,255,0.05)" stroke-width="0.5"/>
  <text x="408" y="465" font-family="system-ui" font-size="12" font-weight="600" fill="#fff">Recent Activity</text>
  <rect x="408" y="478" width="360" height="1" fill="rgba(255,255,255,0.04)"/>
  <circle cx="416" cy="496" r="3" fill="#22c55e"/>
  <text x="426" y="500" font-family="system-ui" font-size="10" fill="rgba(255,255,255,0.55)">New user registration spike detected</text>
  <text x="710" y="500" font-family="system-ui" font-size="9" fill="rgba(255,255,255,0.2)">2m ago</text>
  <circle cx="416" cy="516" r="3" fill="#4facfe"/>
  <text x="426" y="520" font-family="system-ui" font-size="10" fill="rgba(255,255,255,0.55)">Dashboard export completed</text>
  <text x="710" y="520" font-family="system-ui" font-size="9" fill="rgba(255,255,255,0.2)">15m ago</text>
  <circle cx="416" cy="536" r="3" fill="#f97316"/>
  <text x="426" y="540" font-family="system-ui" font-size="10" fill="rgba(255,255,255,0.55)">Revenue target 80% achieved</text>
  <text x="710" y="540" font-family="system-ui" font-size="9" fill="rgba(255,255,255,0.2)">1h ago</text>
  <circle cx="416" cy="556" r="3" fill="#a855f7"/>
  <text x="426" y="560" font-family="system-ui" font-size="10" fill="rgba(255,255,255,0.55)">New integration: Stripe connected</text>
  <text x="710" y="560" font-family="system-ui" font-size="9" fill="rgba(255,255,255,0.2)">2h ago</text>
</svg>
